<svg width="160" height="40" viewBox="0 0 160 40" fill="none" xmlns="http://www.w3.org/2000/svg">
<path d="M76.7621 30.5155V1.64948H94.6556V4.82474H79.9675V14.4742H92.7486V17.6495H79.9675V30.5155H76.7621Z" fill="#FFFFFF"/>
<path d="M99.7174 30.5155V0H102.801V30.5155H99.7174Z" fill="#FFFFFF"/>
<path d="M117.766 30.9278C115.683 30.9278 113.817 30.4467 112.167 29.4845C110.544 28.4948 109.259 27.1615 108.312 25.4845C107.365 23.7801 106.892 21.8419 106.892 19.6701C106.892 17.5258 107.365 15.6151 108.312 13.9381C109.259 12.2337 110.544 10.9003 112.167 9.93814C113.817 8.97594 115.683 8.49484 117.766 8.49484C119.849 8.49484 121.702 8.97594 123.325 9.93814C124.975 10.9003 126.26 12.2337 127.179 13.9381C128.126 15.6151 128.599 17.5258 128.599 19.6701C128.599 21.8419 128.126 23.7801 127.179 25.4845C126.26 27.1615 124.975 28.4948 123.325 29.4845C121.702 30.4467 119.849 30.9278 117.766 30.9278ZM117.766 27.9588C119.254 27.9588 120.566 27.6014 121.702 26.8866C122.865 26.1718 123.771 25.1959 124.42 23.9588C125.069 22.6942 125.394 21.2646 125.394 19.6701C125.394 18.0756 125.069 16.6735 124.42 15.4639C123.771 14.2268 122.865 13.2509 121.702 12.5361C120.566 11.8213 119.254 11.4639 117.766 11.4639C116.278 11.4639 114.953 11.8213 113.79 12.5361C112.626 13.2509 111.72 14.2268 111.071 15.4639C110.422 16.701 110.097 18.1031 110.097 19.6701C110.097 21.2646 110.422 22.6942 111.071 23.9588C111.72 25.1959 112.626 26.1718 113.79 26.8866C114.953 27.6014 116.278 27.9588 117.766 27.9588Z" fill="#FFFFFF"/>
<path d="M137.278 30.5155L129.893 8.94845H133.18L138.414 25.0309L144.054 12.2887H145.92L151.479 24.8247L156.754 8.94845H160L152.656 30.5155H150.83L144.906 16.701L139.144 30.5155H137.278Z" fill="#FFFFFF"/>
<path d="M0 30.5155V1.64951H11.9696C13.6467 1.64951 15.148 2.06188 16.4734 2.88662C17.8259 3.68387 18.8944 4.78353 19.6788 6.18559C20.4903 7.56016 20.8961 9.11342 20.8961 10.8454C20.8961 12.6323 20.4903 14.2406 19.6788 15.6701C18.8944 17.0722 17.8259 18.1993 16.4734 19.0516C15.148 19.8763 13.6467 20.2887 11.9696 20.2887H5.84279V30.5155H0ZM5.80222 14.8866H11.361C12.3618 14.8866 13.2004 14.5155 13.8766 13.7732C14.5799 13.0035 14.9316 12.055 14.9316 10.9279C14.9316 9.80071 14.5799 8.87975 13.8766 8.16497C13.2004 7.4227 12.3618 7.05157 11.361 7.05157H5.80222V14.8866Z" fill="#FF941A"/>
<path d="M33.2157 30.9279C31.4304 30.9279 29.8209 30.433 28.3872 29.4433C26.9536 28.4536 25.804 27.1065 24.9384 25.4021C24.0998 23.6976 23.6805 21.7595 23.6805 19.5876C23.6805 17.3608 24.0998 15.409 24.9384 13.732C25.804 12.0275 26.9671 10.6942 28.4278 9.73198C29.9156 8.76978 31.5927 8.28868 33.4591 8.28868C34.9739 8.28868 36.2994 8.60483 37.4355 9.23713C38.5716 9.84194 39.4777 10.6392 40.154 11.6289V8.74229H45.6722V30.5155H40.1134V27.5876C39.356 28.5498 38.3687 29.3471 37.1514 29.9794C35.9612 30.6117 34.6493 30.9279 33.2157 30.9279ZM34.7169 26.0206C36.367 26.0206 37.706 25.4296 38.7339 24.2474C39.7618 23.0653 40.2757 21.512 40.2757 19.5876C40.2757 17.6632 39.7618 16.11 38.7339 14.9279C37.706 13.7457 36.367 13.1547 34.7169 13.1547C33.0939 13.1547 31.7685 13.7457 30.7406 14.9279C29.7397 16.11 29.2393 17.6632 29.2393 19.5876C29.2393 21.512 29.7397 23.0653 30.7406 24.2474C31.7685 25.4296 33.0939 26.0206 34.7169 26.0206Z" fill="#FF941A"/>
<path d="M54.0598 40L58.0361 30.6392L48.2981 8.74229H54.5872L60.0243 21.7732C60.2677 22.3505 60.5112 23.0241 60.7546 23.7938C60.8628 23.4914 60.9575 23.2028 61.0387 22.9279C61.1469 22.6254 61.2551 22.3093 61.3633 21.9794L66.0294 8.74229H72.3996L63.392 30.5155L59.6997 40H54.0598Z" fill="#FF941A"/>
</svg>
