<svg width="48" height="48" viewBox="0 0 48 48" fill="none" xmlns="http://www.w3.org/2000/svg">
<rect width="48" height="48" rx="5" fill="#585666"/>
<path d="M16 15H32C32.2652 15 32.5196 15.1054 32.7071 15.2929C32.8946 15.4804 33 15.7348 33 16V32C33 32.2652 32.8946 32.5196 32.7071 32.7071C32.5196 32.8946 32.2652 33 32 33H16C15.7348 33 15.4804 32.8946 15.2929 32.7071C15.1054 32.5196 15 32.2652 15 32V16C15 15.7348 15.1054 15.4804 15.2929 15.2929C15.4804 15.1054 15.7348 15 16 15ZM17 17V31H31V17H17ZM23 23V19H25V23H29V25H25V29H23V25H19V23H23Z" fill="white"/>
</svg>
